ffmpeg started on 2016-11-27 at 01:07:42
Report written to "Output/NVENCh264/results/ffmpeg/old_town_cross_2160p50llhq1000k.log"
Command line:
Tools/ffmpeg/ffmpeg -benchmark -y -i Input/y4m/old_town_cross_2160p50.y4m -c:v h264_nvenc -preset llhq -b:v 1000k -an Output/NVENCh264/encoded/old_town_cross_2160p50llhq1000k.mkv
ffmpeg version N-82227-gdb23fde Copyright (c) 2000-2016 the FFmpeg developers
  built with gcc 5.4.0 (Ubuntu 5.4.0-6ubuntu1~16.04.2) 20160609
  configuration: --prefix=/home/jaroslav/ffmpeg_build --pkg-config-flags=--static --extra-cflags=-I/home/jaroslav/ffmpeg_build/include --extra-ldflags=-L/home/jaroslav/ffmpeg_build/lib --bindir=/home/jaroslav/bin --enable-gpl --enable-libass --enable-libfdk-aac --enable-libfreetype --enable-libmp3lame --enable-libopus --enable-libtheora --enable-libvorbis --enable-libvpx --enable-libx264 --enable-libx265 --enable-nvenc --enable-libmfx --enable-libxvid --enable-libgsm --enable-libopencore-amrnb --enable-version3 --enable-nonfree
  libavutil      55. 35.100 / 55. 35.100
  libavcodec     57. 66.101 / 57. 66.101
  libavformat    57. 57.100 / 57. 57.100
  libavdevice    57.  2.100 / 57.  2.100
  libavfilter     6. 66.100 /  6. 66.100
  libswscale      4.  3.100 /  4.  3.100
  libswresample   2.  4.100 /  2.  4.100
  libpostproc    54.  2.100 / 54.  2.100
Input #0, yuv4mpegpipe, from 'Input/y4m/old_town_cross_2160p50.y4m':
  Duration: 00:00:10.00, start: 0.000000, bitrate: 4976642 kb/s
    Stream #0:0: Video: rawvideo (I420 / 0x30323449), yuv420p(progressive), 3840x2160, SAR 1:1 DAR 16:9, 50 fps, 50 tbr, 50 tbn, 50 tbc
[h264_nvenc @ 0x28ec120] The variable bitrate rate-control requires the 'qmin' and/or 'qmax' option set.
Output #0, matroska, to 'Output/NVENCh264/encoded/old_town_cross_2160p50llhq1000k.mkv':
  Metadata:
    encoder         : Lavf57.57.100
    Stream #0:0: Video: h264 (h264_nvenc) (Main) (H264 / 0x34363248), yuv420p, 3840x2160 [SAR 1:1 DAR 16:9], q=-1--1, 1000 kb/s, 50 fps, 1k tbn, 50 tbc
    Metadata:
      encoder         : Lavc57.66.101 h264_nvenc
    Side data:
      cpb: bitrate max/min/avg: 0/0/1000000 buffer size: 2000000 vbv_delay: -1
Stream mapping:
  Stream #0:0 -> #0:0 (rawvideo (native) -> h264 (h264_nvenc))
Press [q] to stop, [?] for help
frame=   19 fps=0.0 q=0.0 size=       0kB time=00:00:00.00 bitrate=N/A speed=   0x    frame=   37 fps= 36 q=47.0 size=       1kB time=00:00:00.12 bitrate=  49.3kbits/s speed=0.118x    frame=   55 fps= 36 q=49.0 size=       1kB time=00:00:00.48 bitrate=  12.4kbits/s speed=0.313x    frame=   72 fps= 31 q=49.0 size=       1kB time=00:00:00.82 bitrate=   7.3kbits/s speed=0.351x    frame=   90 fps= 31 q=49.0 size=       1kB time=00:00:01.18 bitrate=   5.0kbits/s speed=0.412x    frame=  108 fps= 32 q=49.0 size=       1kB time=00:00:01.54 bitrate=   3.9kbits/s speed=0.455x    frame=  126 fps= 32 q=49.0 size=       1kB time=00:00:01.90 bitrate=   3.1kbits/s speed=0.487x    frame=  133 fps= 30 q=49.0 size=       1kB time=00:00:02.04 bitrate=   2.9kbits/s speed=0.463x    frame=  151 fps= 31 q=49.0 size=       1kB time=00:00:02.40 bitrate=   2.5kbits/s speed=0.488x    frame=  169 fps= 31 q=49.0 size=       1kB time=00:00:02.76 bitrate=   2.2kbits/s speed=0.508x    frame=  187 fps= 31 q=49.0 size=       1kB time=00:00:03.12 bitrate=   1.9kbits/s speed=0.525x    frame=  205 fps= 32 q=49.0 size=       1kB time=00:00:03.48 bitrate=   1.7kbits/s speed=0.538x    frame=  223 fps= 32 q=49.0 size=       1kB time=00:00:03.84 bitrate=   1.6kbits/s speed=0.55x    frame=  241 fps= 32 q=49.0 size=       1kB time=00:00:04.20 bitrate=   1.4kbits/s speed=0.561x    frame=  259 fps= 32 q=49.0 size=       1kB time=00:00:04.56 bitrate=   1.3kbits/s speed=0.57x    frame=  277 fps= 33 q=49.0 size=       1kB time=00:00:04.92 bitrate=   1.2kbits/s speed=0.578x    frame=  295 fps= 33 q=49.0 size=    1140kB time=00:00:05.28 bitrate=1767.8kbits/s speed=0.585x    frame=  313 fps= 33 q=49.0 size=    1140kB time=00:00:05.64 bitrate=1655.0kbits/s speed=0.591x    frame=  331 fps= 33 q=49.0 size=    1140kB time=00:00:06.00 bitrate=1555.7kbits/s speed=0.597x    frame=  342 fps= 32 q=49.0 size=    1140kB time=00:00:06.22 bitrate=1500.7kbits/s speed=0.583x    frame=  360 fps= 32 q=49.0 size=    1140kB time=00:00:06.58 bitrate=1418.6kbits/s speed=0.588x    frame=  378 fps= 32 q=49.0 size=    1140kB time=00:00:06.94 bitrate=1345.0kbits/s speed=0.593x    frame=  396 fps= 32 q=49.0 size=    1140kB time=00:00:07.30 bitrate=1278.7kbits/s speed=0.597x    frame=  414 fps= 33 q=49.0 size=    1140kB time=00:00:07.66 bitrate=1218.6kbits/s speed=0.601x    frame=  432 fps= 33 q=49.0 size=    1140kB time=00:00:08.02 bitrate=1163.9kbits/s speed=0.606x    frame=  450 fps= 33 q=49.0 size=    1140kB time=00:00:08.38 bitrate=1113.9kbits/s speed=0.609x    frame=  468 fps= 32 q=49.0 size=    1140kB time=00:00:08.74 bitrate=1068.0kbits/s speed= 0.6x    frame=  486 fps= 32 q=49.0 size=    1140kB time=00:00:09.10 bitrate=1025.8kbits/s speed=0.603x    frame=  500 fps= 32 q=49.0 Lsize=    2558kB time=00:00:09.98 bitrate=2099.7kbits/s speed=0.643x    
video:2554kB audio:0kB subtitle:0kB other streams:0kB global headers:0kB muxing overhead: 0.165642%
bench: utime=1.176s
bench: maxrss=1396748kB
